<svg width="712" height="1024" viewBox="0 0 712 1024" fill="none" xmlns="http://www.w3.org/2000/svg">
<g clip-path="url(#clip0_726_5828)">
<path d="M0 50C0 22.3858 22.3858 0 50 0H712V1024H50C22.3858 1024 0 1001.61 0 974V50Z" fill="url(#paint0_linear_726_5828)"/>
<path d="M0 50C0 22.3858 22.3858 0 50 0H712V1024H50C22.3858 1024 0 1001.61 0 974V50Z" fill="black" fill-opacity="0.4"/>
<path d="M299 252.25L914 252.25C924.908 252.25 933.75 261.092 933.75 272V752C933.75 762.908 924.908 771.75 914 771.75H299C288.092 771.75 279.25 762.908 279.25 752V272C279.25 261.092 288.092 252.25 299 252.25Z" stroke="white" stroke-opacity="0.4" stroke-width="0.5"/>
<path d="M-63 504.25L552 504.25C562.908 504.25 571.75 513.092 571.75 524V1004C571.75 1014.91 562.908 1023.75 552 1023.75H-63C-73.9076 1023.75 -82.75 1014.91 -82.75 1004L-82.75 524C-82.75 513.092 -73.9076 504.25 -63 504.25Z" stroke="white" stroke-opacity="0.4" stroke-width="0.5"/>
<g clip-path="url(#clip1_726_5828)">
<path d="M287.812 239.725L306.003 221.534L318.465 233.997L300.275 252.188H326V269.812H300.275L318.465 288.003L306.003 300.465L287.812 282.275V308H270.188V282.275L251.997 300.465L239.535 288.003L257.725 269.812H232V252.188H257.725L239.534 233.997L251.997 221.535L270.188 239.725V214H287.812V239.725Z" fill="white"/>
</g>
<g filter="url(#filter0_f_726_5828)">
<rect x="132" y="377" width="448" height="448" rx="224" fill="#E7FF5C" fill-opacity="0.1"/>
</g>
<foreignObject x="190" y="417" width="332" height="407"><div xmlns="http://www.w3.org/1999/xhtml" style="backdrop-filter:blur(12px);clip-path:url(#bgblur_2_726_5828_clip_path);height:100%;width:100%"></div></foreignObject><g filter="url(#filter1_d_726_5828)" data-figma-bg-blur-radius="24">
<mask id="path-6-inside-1_726_5828" fill="white">
<path d="M228 473C228 455.327 242.327 441 260 441H452C469.673 441 484 455.327 484 473V729C484 746.673 469.673 761 452 761H260C242.327 761 228 746.673 228 729V473Z"/>
</mask>
<path d="M228 473C228 455.327 242.327 441 260 441H452C469.673 441 484 455.327 484 473V729C484 746.673 469.673 761 452 761H260C242.327 761 228 746.673 228 729V473Z" fill="white" fill-opacity="0.05" shape-rendering="crispEdges"/>
<path d="M260 441V442H452V441V440H260V441ZM484 473H483V729H484H485V473H484ZM452 761V760H260V761V762H452V761ZM228 729H229V473H228H227V729H228ZM260 761V760C242.879 760 229 746.121 229 729H228H227C227 747.225 241.775 762 260 762V761ZM484 729H483C483 746.121 469.121 760 452 760V761V762C470.225 762 485 747.225 485 729H484ZM452 441V442C469.121 442 483 455.879 483 473H484H485C485 454.775 470.225 440 452 440V441ZM260 441V440C241.775 440 227 454.775 227 473H228H229C229 455.879 242.879 442 260 442V441Z" fill="white" fill-opacity="0.2" mask="url(#path-6-inside-1_726_5828)"/>
<g filter="url(#filter2_dd_726_5828)">
<rect x="308" y="489" width="96" height="96" rx="48" fill="#E6F3ED"/>
<path d="M346 541C346 541 345.725 541 345.175 541C344.625 541 343.958 540.608 343.175 539.825C342.392 539.042 342 538.1 342 537C342 535.9 342.392 534.958 343.175 534.175C343.958 533.392 344.9 533 346 533C347.1 533 348.042 533.392 348.825 534.175C349.608 534.958 350 535.9 350 537C350 538.1 349.608 539.042 348.825 539.825C348.042 540.608 347.1 541 346 541ZM346 549C342.667 549 339.833 547.833 337.5 545.5C335.167 543.167 334 540.333 334 537C334 533.667 335.167 530.833 337.5 528.5C339.833 526.167 342.667 525 346 525C348.233 525 350.258 525.55 352.075 526.65C353.892 527.75 355.333 529.2 356.4 531H374L380 537L371 546L367 543L363 546L358.75 543H356.4C355.333 544.8 353.892 546.25 352.075 547.35C350.258 548.45 348.233 549 346 549ZM346 545C347.867 545 349.508 544.433 350.925 543.3C352.342 542.167 353.283 540.733 353.75 539H360L362.9 541.05L367 538L370.55 540.75L374.3 537L372.3 535H353.75C353.283 533.267 352.342 531.833 350.925 530.7C349.508 529.567 347.867 529 346 529C343.8 529 341.917 529.783 340.35 531.35C338.783 532.917 338 534.8 338 537C338 539.2 338.783 541.083 340.35 542.65C341.917 544.217 343.8 545 346 545Z" fill="#007074"/>
</g>
<rect x="261" y="609" width="190" height="8" rx="4" fill="white" fill-opacity="0.1"/>
<rect x="292.67" y="629" width="126.66" height="8" rx="4" fill="white" fill-opacity="0.1"/>
<mask id="path-12-inside-2_726_5828" fill="white">
<path d="M261 677C261 670.373 266.373 665 273 665H439C445.627 665 451 670.373 451 677V701C451 707.627 445.627 713 439 713H273C266.373 713 261 707.627 261 701V677Z"/>
</mask>
<path d="M261 677C261 670.373 266.373 665 273 665H439C445.627 665 451 670.373 451 677V701C451 707.627 445.627 713 439 713H273C266.373 713 261 707.627 261 701V677Z" fill="#E6FF5C" fill-opacity="0.2"/>
<path d="M273 665V666H439V665V664H273V665ZM451 677H450V701H451H452V677H451ZM439 713V712H273V713V714H439V713ZM261 701H262V677H261H260V701H261ZM273 713V712C266.925 712 262 707.075 262 701H261H260C260 708.18 265.82 714 273 714V713ZM451 701H450C450 707.075 445.075 712 439 712V713V714C446.18 714 452 708.18 452 701H451ZM439 665V666C445.075 666 450 670.925 450 677H451H452C452 669.82 446.18 664 439 664V665ZM273 665V664C265.82 664 260 669.82 260 677H261H262C262 670.925 266.925 666 273 666V665Z" fill="#E7FF5C" fill-opacity="0.3" mask="url(#path-12-inside-2_726_5828)"/>
</g>
<g filter="url(#filter3_dd_726_5828)">
<rect x="539.35" y="483.05" width="64" height="64" rx="16" transform="rotate(12 539.35 483.05)" fill="#E6F3ED"/>
<path d="M561.975 530.511C560.66 530.232 559.477 529.719 558.426 528.974C557.376 528.229 556.514 527.338 555.84 526.301C555.166 525.263 554.702 524.113 554.449 522.85C554.196 521.587 554.209 520.298 554.489 518.983L556.39 519.387C556.168 520.433 556.156 521.461 556.355 522.473C556.554 523.484 556.925 524.407 557.468 525.243C558.011 526.079 558.703 526.797 559.544 527.398C560.385 528 561.329 528.411 562.374 528.634C564.498 529.085 566.453 528.73 568.24 527.57C570.027 526.41 571.146 524.768 571.597 522.644C572.048 520.521 571.694 518.566 570.533 516.779C569.373 514.992 567.731 513.873 565.608 513.422C564.197 513.122 562.845 513.195 561.549 513.64C560.254 514.085 559.152 514.807 558.244 515.806L561.001 516.392L560.597 518.294L554.893 517.081L556.105 511.377L558.007 511.781L557.603 513.683C558.72 512.711 560.01 512.021 561.471 511.611C562.933 511.201 564.448 511.163 566.017 511.496C567.332 511.776 568.515 512.288 569.566 513.033C570.616 513.778 571.479 514.67 572.152 515.707C572.826 516.745 573.29 517.895 573.543 519.158C573.796 520.42 573.783 521.71 573.504 523.025C573.224 524.34 572.712 525.523 571.967 526.573C571.222 527.624 570.33 528.486 569.293 529.16C568.255 529.834 567.105 530.297 565.842 530.551C564.579 530.804 563.29 530.791 561.975 530.511ZM561.286 524.403C561.017 524.345 560.81 524.206 560.667 523.985C560.523 523.764 560.48 523.519 560.538 523.25L561.144 520.398C561.201 520.128 561.34 519.922 561.561 519.778C561.782 519.635 562.027 519.592 562.297 519.649L562.499 518.698C562.61 518.175 562.891 517.767 563.343 517.474C563.794 517.181 564.282 517.09 564.804 517.201C565.327 517.312 565.735 517.593 566.029 518.045C566.322 518.496 566.413 518.984 566.302 519.507L566.1 520.457C566.369 520.515 566.575 520.654 566.719 520.875C566.862 521.096 566.906 521.341 566.848 521.61L566.242 524.462C566.185 524.732 566.046 524.938 565.825 525.082C565.604 525.225 565.359 525.268 565.089 525.211L561.286 524.403ZM563.247 519.851L565.149 520.255L565.351 519.304C565.408 519.035 565.365 518.79 565.222 518.569C565.078 518.348 564.872 518.209 564.602 518.152C564.333 518.094 564.088 518.137 563.867 518.281C563.646 518.424 563.507 518.631 563.45 518.9L563.247 519.851Z" fill="#007074"/>
</g>
<foreignObject x="80.5596" y="613.557" width="118.885" height="118.885"><div xmlns="http://www.w3.org/1999/xhtml" style="backdrop-filter:blur(6px);clip-path:url(#bgblur_3_726_5828_clip_path);height:100%;width:100%"></div></foreignObject><g data-figma-bg-blur-radius="12">
<mask id="path-16-inside-3_726_5828" fill="white">
<path d="M95.8862 657.84C94.0489 649.197 99.5665 640.701 108.21 638.863L155.161 628.884C163.804 627.046 172.301 632.564 174.138 641.207L184.118 688.158C185.955 696.802 180.437 705.298 171.794 707.135L124.843 717.115C116.199 718.952 107.703 713.435 105.866 704.791L95.8862 657.84Z"/>
</mask>
<path d="M95.8862 657.84C94.0489 649.197 99.5665 640.701 108.21 638.863L155.161 628.884C163.804 627.046 172.301 632.564 174.138 641.207L184.118 688.158C185.955 696.802 180.437 705.298 171.794 707.135L124.843 717.115C116.199 718.952 107.703 713.435 105.866 704.791L95.8862 657.84Z" fill="white" fill-opacity="0.1"/>
<path d="M108.21 638.863L108.418 639.842L155.369 629.862L155.161 628.884L154.953 627.905L108.002 637.885L108.21 638.863ZM174.138 641.207L173.16 641.415L183.14 688.366L184.118 688.158L185.096 687.951L175.116 640.999L174.138 641.207ZM171.794 707.135L171.586 706.157L124.635 716.137L124.843 717.115L125.051 718.093L172.002 708.114L171.794 707.135ZM105.866 704.791L106.844 704.584L96.8643 657.632L95.8862 657.84L94.908 658.048L104.888 704.999L105.866 704.791ZM124.843 717.115L124.635 716.137C116.532 717.859 108.566 712.687 106.844 704.584L105.866 704.791L104.888 704.999C106.84 714.183 115.867 720.045 125.051 718.093L124.843 717.115ZM184.118 688.158L183.14 688.366C184.862 696.47 179.689 704.435 171.586 706.157L171.794 707.135L172.002 708.114C181.186 706.162 187.048 697.134 185.096 687.951L184.118 688.158ZM155.161 628.884L155.369 629.862C163.472 628.139 171.437 633.312 173.16 641.415L174.138 641.207L175.116 640.999C173.164 631.816 164.137 625.953 154.953 627.905L155.161 628.884ZM108.21 638.863L108.002 637.885C98.8183 639.837 92.956 648.865 94.908 658.048L95.8862 657.84L96.8643 657.632C95.1419 649.529 100.315 641.564 108.418 639.842L108.21 638.863Z" fill="white" fill-opacity="0.2" mask="url(#path-16-inside-3_726_5828)"/>
<path d="M142.601 685.225C139.617 685.114 136.933 683.986 134.55 681.841C132.167 679.696 130.646 677.075 129.988 673.978L128.403 666.521L137.403 660.774L147.963 662.363L149.548 669.82C150.207 672.917 149.883 675.93 148.579 678.859C147.274 681.788 145.281 683.91 142.601 685.225ZM142.055 682.657C143.901 681.626 145.295 680.068 146.236 677.983C147.177 675.899 147.524 673.722 147.276 671.453L140.002 672.999L137.956 663.372L131.205 667.682L132.433 673.458C132.481 673.682 132.52 673.866 132.55 674.008C132.58 674.151 132.64 674.33 132.728 674.546L140.002 672.999L142.055 682.657Z" fill="white"/>
</g>
</g>
<defs>
<filter id="filter0_f_726_5828" x="68" y="313" width="576" height="576" filterUnits="userSpaceOnUse" color-interpolation-filters="sRGB">
<feFlood flood-opacity="0" result="BackgroundImageFix"/>
<feBlend mode="normal" in="SourceGraphic" in2="BackgroundImageFix" result="shape"/>
<feGaussianBlur stdDeviation="32" result="effect1_foregroundBlur_726_5828"/>
</filter>
<filter id="filter1_d_726_5828" x="190" y="417" width="332" height="407" filterUnits="userSpaceOnUse" color-interpolation-filters="sRGB">
<feFlood flood-opacity="0" result="BackgroundImageFix"/>
<feColorMatrix in="SourceAlpha" type="matrix" values="0 0 0 0 0 0 0 0 0 0 0 0 0 0 0 0 0 0 127 0" result="hardAlpha"/>
<feMorphology radius="12" operator="erode" in="SourceAlpha" result="effect1_dropShadow_726_5828"/>
<feOffset dy="25"/>
<feGaussianBlur stdDeviation="25"/>
<feComposite in2="hardAlpha" operator="out"/>
<feColorMatrix type="matrix" values="0 0 0 0 0 0 0 0 0 0 0 0 0 0 0 0 0 0 0.25 0"/>
<feBlend mode="normal" in2="BackgroundImageFix" result="effect1_dropShadow_726_5828"/>
<feBlend mode="normal" in="SourceGraphic" in2="effect1_dropShadow_726_5828" result="shape"/>
</filter>
<clipPath id="bgblur_2_726_5828_clip_path" transform="translate(-190 -417)"><path d="M228 473C228 455.327 242.327 441 260 441H452C469.673 441 484 455.327 484 473V729C484 746.673 469.673 761 452 761H260C242.327 761 228 746.673 228 729V473Z"/>
</clipPath><filter id="filter2_dd_726_5828" x="296" y="487" width="120" height="120" filterUnits="userSpaceOnUse" color-interpolation-filters="sRGB">
<feFlood flood-opacity="0" result="BackgroundImageFix"/>
<feColorMatrix in="SourceAlpha" type="matrix" values="0 0 0 0 0 0 0 0 0 0 0 0 0 0 0 0 0 0 127 0" result="hardAlpha"/>
<feMorphology radius="4" operator="erode" in="SourceAlpha" result="effect1_dropShadow_726_5828"/>
<feOffset dy="4"/>
<feGaussianBlur stdDeviation="3"/>
<feComposite in2="hardAlpha" operator="out"/>
<feColorMatrix type="matrix" values="0 0 0 0 0 0 0 0 0 0 0 0 0 0 0 0 0 0 0.1 0"/>
<feBlend mode="normal" in2="BackgroundImageFix" result="effect1_dropShadow_726_5828"/>
<feColorMatrix in="SourceAlpha" type="matrix" values="0 0 0 0 0 0 0 0 0 0 0 0 0 0 0 0 0 0 127 0" result="hardAlpha"/>
<feMorphology radius="3" operator="erode" in="SourceAlpha" result="effect2_dropShadow_726_5828"/>
<feOffset dy="10"/>
<feGaussianBlur stdDeviation="7.5"/>
<feComposite in2="hardAlpha" operator="out"/>
<feColorMatrix type="matrix" values="0 0 0 0 0 0 0 0 0 0 0 0 0 0 0 0 0 0 0.1 0"/>
<feBlend mode="normal" in2="effect1_dropShadow_726_5828" result="effect2_dropShadow_726_5828"/>
<feBlend mode="normal" in="SourceGraphic" in2="effect2_dropShadow_726_5828" result="shape"/>
</filter>
<filter id="filter3_dd_726_5828" x="506.043" y="483.05" width="115.908" height="115.908" filterUnits="userSpaceOnUse" color-interpolation-filters="sRGB">
<feFlood flood-opacity="0" result="BackgroundImageFix"/>
<feColorMatrix in="SourceAlpha" type="matrix" values="0 0 0 0 0 0 0 0 0 0 0 0 0 0 0 0 0 0 127 0" result="hardAlpha"/>
<feMorphology radius="6" operator="erode" in="SourceAlpha" result="effect1_dropShadow_726_5828"/>
<feOffset dy="8"/>
<feGaussianBlur stdDeviation="5"/>
<feComposite in2="hardAlpha" operator="out"/>
<feColorMatrix type="matrix" values="0 0 0 0 0 0 0 0 0 0 0 0 0 0 0 0 0 0 0.1 0"/>
<feBlend mode="normal" in2="BackgroundImageFix" result="effect1_dropShadow_726_5828"/>
<feColorMatrix in="SourceAlpha" type="matrix" values="0 0 0 0 0 0 0 0 0 0 0 0 0 0 0 0 0 0 127 0" result="hardAlpha"/>
<feMorphology radius="5" operator="erode" in="SourceAlpha" result="effect2_dropShadow_726_5828"/>
<feOffset dy="20"/>
<feGaussianBlur stdDeviation="12.5"/>
<feComposite in2="hardAlpha" operator="out"/>
<feColorMatrix type="matrix" values="0 0 0 0 0 0 0 0 0 0 0 0 0 0 0 0 0 0 0.1 0"/>
<feBlend mode="normal" in2="effect1_dropShadow_726_5828" result="effect2_dropShadow_726_5828"/>
<feBlend mode="normal" in="SourceGraphic" in2="effect2_dropShadow_726_5828" result="shape"/>
</filter>
<clipPath id="bgblur_3_726_5828_clip_path" transform="translate(-80.5596 -613.557)"><path d="M95.8862 657.84C94.0489 649.197 99.5665 640.701 108.21 638.863L155.161 628.884C163.804 627.046 172.301 632.564 174.138 641.207L184.118 688.158C185.955 696.802 180.437 705.298 171.794 707.135L124.843 717.115C116.199 718.952 107.703 713.435 105.866 704.791L95.8862 657.84Z"/>
</clipPath><linearGradient id="paint0_linear_726_5828" x1="356" y1="0" x2="356" y2="1024" gradientUnits="userSpaceOnUse">
<stop offset="0.35" stop-color="#007074"/>
<stop offset="1" stop-color="#2596BE"/>
</linearGradient>
<clipPath id="clip0_726_5828">
<path d="M0 50C0 22.3858 22.3858 0 50 0H712V1024H50C22.3858 1024 0 1001.61 0 974V50Z" fill="white"/>
</clipPath>
<clipPath id="clip1_726_5828">
<rect width="94" height="94" fill="white" transform="translate(232 214)"/>
</clipPath>
</defs>
</svg>
